{
 "cells": [
  {
   "cell_type": "markdown",
   "id": "bc71c82b",
   "metadata": {},
   "source": [
    "The Man in the Iron Mask by Alexandre Dumas\n",
    "\n",
    "Source https://www.gutenberg.org/ebooks/2759\n",
    "\n",
    "Ref https://en.wikipedia.org/wiki/00"
   ]
  },
  {
   "cell_type": "code",
   "execution_count": null,
   "id": "8e0fc48f",
   "metadata": {},
   "outputs": [],
   "source": [
    "# Concept art\n",
    "\n",
    "Summary: \n",
    "\n",
    "Genre: \n",
    "\n",
    "Background: \n",
    "\n",
    "Main charactor:\n",
    "\n",
    "Prompt:\n",
    "Main charactor + Background + Summary\n",
    "--ar 3:2 --no text\n",
    "\n",
    "\n",
    "=== GPT4 ===\n",
    "As image prompt generator, write prompt to generate cover image of book 'The Man in the Iron Mask by Alexandre Dumas' first half of the story, following steps below\n",
    "- Suggest 5 options of the cover images, wait for me to confirm\n",
    "- Suggest art style eg classic art, ultra-realistic, photorealism, cartoon, japanese anime, classic movie, classic photo, illustration, black and white and others as you see fit , wait for me to confirm\n",
    "- Suggest composition eg cinematic still, close up short, close up short, full body short, landscape and others as you see fit , wait for me to confirm\n",
    "- list keys elements of the image to explain scene / subject / action / setting, at least should include: era, main character, scene, evant detail, location, time of the day, atmosphere and others as you see fit\n",
    "- explain each element in detail according to choices above\n",
    "- Do not use charactors name, describe them by their visual instead\n",
    "- wait for feedback and confirm before continue to next step\n",
    "- generate prompt from explanations above start from art style, composition, era and all elements above in full detail with comma separated\n",
    "- end with ' use Midjourney v5,  --ar 16:9 --no text'"
   ]
  },
  {
   "cell_type": "code",
   "execution_count": null,
   "id": "0229b767",
   "metadata": {},
   "outputs": [],
   "source": [
    "# Youtube description\n",
    "\n",
    "Prompt: Write title, description, and keywords of youtube video of full audiobook of the classic book \"The Man in the Iron Mask by Alexandre Dumas\"\n",
    "    \n",
    "Title: The Man in the Iron Mask by Alexandre Dumas | Full Audiobook - Part 1/2\n",
    "\n",
    "Description:\n",
    "Immerse yourself in the intrigue and adventure of 'The Man in the Iron Mask' by Alexandre Dumas in this complete unabridged audiobook. This historical fiction, part of the celebrated d'Artagnan Romances, takes you to the heart of 17th-century France, filled with mystery, action, and royal drama.\n",
    "\n",
    "'The Man in the Iron Mask' tells the captivating tale of a mysterious prisoner, his identity hidden by an iron mask, and the Four Musketeers who are embroiled in this enigma. Dumas' classic novel, with its richly drawn characters and intricate plot, continues to captivate readers and listeners alike, transporting them to a time of royal intrigue and heroic adventure.\n",
    "\n",
    "Hit the like button if you enjoy this classic novel, and don't forget to subscribe for more timeless stories from classic literature.\n",
    "\n",
    "#TheManInTheIronMask #AlexandreDumas #FullAudiobook #ClassicLiterature #Audiobooks\"\n",
    "\n",
    "0:00:00 Chapter 30\n",
    "0:14:13 Chaptor 31\n",
    "0:31:48 Chaptor 32\n",
    "0:52:59 Chaptor 33\n",
    "1:20:35 Chaptor 34\n",
    "1:40:33 Chaptor 35\n",
    "1:57:14 Chaptor 36\n",
    "2:13:55 Chaptor 37\n",
    "2:30:44 Chaptor 38\n",
    "2:43:52 Chaptor 39\n",
    "3:02:50 Chaptor 40\n",
    "3:21:26 Chaptor 41\n",
    "3:43:48 Chaptor 42\n",
    "4:05:48 Chaptor 43\n",
    "4:30:46 Chaptor 44\n",
    "4:36:43 Chaptor 45\n",
    "4:46:19 Chaptor 46\n",
    "4:59:42 Chaptor 47\n",
    "5:14:08 Chaptor 48\n",
    "5:32:40 Chaptor 49\n",
    "5:44:47 Chaptor 50\n",
    "6:00:01 Chaptor 51\n",
    "6:15:49 Chaptor 52\n",
    "6:29:15 Chaptor 53\n",
    "6:48:00 Chaptor 54\n",
    "7:03:21 Chaptor 55\n",
    "7:16:52 Chaptor 56\n",
    "7:29:10 Chaptor 57\n",
    "7:43:40 Chaptor 58\n",
    "7:54:53 Chaptor 59\n",
    "8:09:44 Chaptor 60\n",
    "8:24:11 Epilogue\n",
    "        \n",
    "Credits\n",
    "Text: Project Gutenberg https://www.gutenberg.org/ebooks/2759\n",
    "Voice: Google Cloud Text-to-Speech\n",
    "Produced by: The Classic Narrator 2023\n",
    "    \n",
    "Keywords:\n",
    "Alexandre Dumas, The Man in the Iron Mask, Full Audiobook, Classic Literature, French Literature, Historical Fiction, d'Artagnan Romances, Classic Novel, 17th Century France, The Three Musketeers, Audiobook, Unabridged Audiobook, Classic Audiobook, Literature Audiobook, Adventure, Mystery, Classic French Literature.\n"
   ]
  },
  {
   "cell_type": "code",
   "execution_count": null,
   "id": "77a554fb",
   "metadata": {},
   "outputs": [],
   "source": [
    "# Voice test\n",
    "\n",
    "from TextToAudiobook import *\n",
    "test_tta = TextToAudiobook(\"test\")\n",
    "\n",
    "\n",
    "\n",
    "text = '''\n",
    "\n",
    "xxxx\n",
    "\n",
    "'''\n",
    "\n",
    "# Test voices\n",
    "voice = texttospeech.VoiceSelectionParams(\n",
    "    language_code=\"en-GB\",\n",
    "    name=\"en-GB-Neural2-A\",\n",
    ")\n",
    "\n",
    "voice = texttospeech.VoiceSelectionParams(\n",
    "    language_code=\"en-GB\",\n",
    "    name=\"en-GB-Standard-A\",\n",
    ")\n",
    "\n",
    "\n",
    "audio_config = texttospeech.AudioConfig(\n",
    "    audio_encoding=texttospeech.AudioEncoding.MP3,\n",
    "    speaking_rate=0.9\n",
    ")\n",
    "\n",
    "test_tta.synthesize_ssml(text, \"output.mp3\", voice, audio_config)\n",
    "# test_tta.synthesize_text(text, \"output.mp3\", voice, audio_config)\n",
    "\n"
   ]
  },
  {
   "cell_type": "code",
   "execution_count": 1,
   "id": "0326b8d9",
   "metadata": {},
   "outputs": [],
   "source": [
    "%load_ext autoreload\n",
    "%reload_ext autoreload\n",
    "%autoreload 2"
   ]
  },
  {
   "cell_type": "code",
   "execution_count": 2,
   "id": "c3793734",
   "metadata": {},
   "outputs": [],
   "source": [
    "# Text to script\n",
    "\n",
    "from TextToAudiobook import *\n",
    "\n",
    "folder_name = \"ManintheIronMask\"\n",
    "# file_name = \"2759-1.txt\"\n",
    "file_name = \"2759-2.txt\"\n",
    "\n",
    "test_tta = TextToAudiobook(folder_name, char_limit_per_call=2000)"
   ]
  },
  {
   "cell_type": "code",
   "execution_count": 3,
   "id": "4b63cb09",
   "metadata": {},
   "outputs": [
    {
     "name": "stdout",
     "output_type": "stream",
     "text": [
      "Clean: 10366 lines\n",
      "./ManintheIronMask/project_file/clean/2759-2.txt\n",
      "Tag: 10366 lines\n",
      "./ManintheIronMask/project_file/tag/2759-2.txt\n",
      "Break: 10366 lines\n",
      "./ManintheIronMask/project_file/break/2759-2.txt\n",
      "Split: 304 files\n",
      "./ManintheIronMask/project_file/split/2759-2_txt/\n"
     ]
    }
   ],
   "source": [
    "#1 Clean raw file and copy to clean folder\n",
    "print(test_tta.clean_txt_raw(file_name))\n",
    "\n",
    "#2 Tag speech in clean file and copy to tag folder\n",
    "print(test_tta.tag_txt_clean(file_name))\n",
    "\n",
    "#3 Mark break point by chapter and characters limit\n",
    "print(test_tta.break_txt_tag(file_name))\n",
    "\n",
    "#4 Split into files by chapter and characters break\n",
    "print(test_tta.split_txt_break(file_name))"
   ]
  },
  {
   "cell_type": "code",
   "execution_count": 7,
   "id": "750cd4eb",
   "metadata": {},
   "outputs": [
    {
     "name": "stdout",
     "output_type": "stream",
     "text": [
      "Generate audio => ./ManintheIronMask/project_file/audio/2759-2_txt/0011_010.mp3\n",
      "Generate audio => ./ManintheIronMask/project_file/audio/2759-2_txt/0012_001.mp3\n",
      "Generate audio => ./ManintheIronMask/project_file/audio/2759-2_txt/0012_002.mp3\n",
      "Generate audio => ./ManintheIronMask/project_file/audio/2759-2_txt/0012_003.mp3\n",
      "Generate audio => ./ManintheIronMask/project_file/audio/2759-2_txt/0012_004.mp3\n",
      "Generate audio => ./ManintheIronMask/project_file/audio/2759-2_txt/0012_005.mp3\n",
      "Generate audio => ./ManintheIronMask/project_file/audio/2759-2_txt/0012_006.mp3\n",
      "Generate audio => ./ManintheIronMask/project_file/audio/2759-2_txt/0012_007.mp3\n",
      "Generate audio => ./ManintheIronMask/project_file/audio/2759-2_txt/0012_008.mp3\n",
      "Generate audio => ./ManintheIronMask/project_file/audio/2759-2_txt/0012_009.mp3\n",
      "Generate audio => ./ManintheIronMask/project_file/audio/2759-2_txt/0012_010.mp3\n",
      "Generate audio => ./ManintheIronMask/project_file/audio/2759-2_txt/0012_011.mp3\n",
      "Generate audio => ./ManintheIronMask/project_file/audio/2759-2_txt/0012_012.mp3\n",
      "Generate audio => ./ManintheIronMask/project_file/audio/2759-2_txt/0013_001.mp3\n",
      "Generate audio => ./ManintheIronMask/project_file/audio/2759-2_txt/0013_002.mp3\n",
      "Generate audio => ./ManintheIronMask/project_file/audio/2759-2_txt/0013_003.mp3\n",
      "Generate audio => ./ManintheIronMask/project_file/audio/2759-2_txt/0013_004.mp3\n",
      "Generate audio => ./ManintheIronMask/project_file/audio/2759-2_txt/0013_005.mp3\n",
      "Generate audio => ./ManintheIronMask/project_file/audio/2759-2_txt/0013_006.mp3\n",
      "Generate audio => ./ManintheIronMask/project_file/audio/2759-2_txt/0013_007.mp3\n",
      "Generate audio => ./ManintheIronMask/project_file/audio/2759-2_txt/0013_008.mp3\n",
      "Generate audio => ./ManintheIronMask/project_file/audio/2759-2_txt/0013_009.mp3\n",
      "Generate audio => ./ManintheIronMask/project_file/audio/2759-2_txt/0013_010.mp3\n",
      "Generate audio => ./ManintheIronMask/project_file/audio/2759-2_txt/0013_011.mp3\n",
      "Generate audio => ./ManintheIronMask/project_file/audio/2759-2_txt/0013_012.mp3\n",
      "Generate audio => ./ManintheIronMask/project_file/audio/2759-2_txt/0014_001.mp3\n",
      "Generate audio => ./ManintheIronMask/project_file/audio/2759-2_txt/0014_002.mp3\n",
      "Generate audio => ./ManintheIronMask/project_file/audio/2759-2_txt/0014_003.mp3\n",
      "Generate audio => ./ManintheIronMask/project_file/audio/2759-2_txt/0014_004.mp3\n",
      "Generate audio => ./ManintheIronMask/project_file/audio/2759-2_txt/0014_005.mp3\n",
      "Generate audio => ./ManintheIronMask/project_file/audio/2759-2_txt/0014_006.mp3\n",
      "Generate audio => ./ManintheIronMask/project_file/audio/2759-2_txt/0014_007.mp3\n",
      "Generate audio => ./ManintheIronMask/project_file/audio/2759-2_txt/0014_008.mp3\n",
      "Generate audio => ./ManintheIronMask/project_file/audio/2759-2_txt/0014_009.mp3\n",
      "Generate audio => ./ManintheIronMask/project_file/audio/2759-2_txt/0014_010.mp3\n",
      "Generate audio => ./ManintheIronMask/project_file/audio/2759-2_txt/0014_011.mp3\n",
      "Generate audio => ./ManintheIronMask/project_file/audio/2759-2_txt/0014_012.mp3\n",
      "Generate audio => ./ManintheIronMask/project_file/audio/2759-2_txt/0014_013.mp3\n",
      "Generate audio => ./ManintheIronMask/project_file/audio/2759-2_txt/0014_014.mp3\n",
      "Generate audio => ./ManintheIronMask/project_file/audio/2759-2_txt/0015_001.mp3\n",
      "Generate audio => ./ManintheIronMask/project_file/audio/2759-2_txt/0015_002.mp3\n",
      "Generate audio => ./ManintheIronMask/project_file/audio/2759-2_txt/0015_003.mp3\n",
      "Generate audio => ./ManintheIronMask/project_file/audio/2759-2_txt/0016_001.mp3\n",
      "Generate audio => ./ManintheIronMask/project_file/audio/2759-2_txt/0016_002.mp3\n",
      "Generate audio => ./ManintheIronMask/project_file/audio/2759-2_txt/0016_003.mp3\n",
      "Generate audio => ./ManintheIronMask/project_file/audio/2759-2_txt/0016_004.mp3\n",
      "Generate audio => ./ManintheIronMask/project_file/audio/2759-2_txt/0016_005.mp3\n",
      "Generate audio => ./ManintheIronMask/project_file/audio/2759-2_txt/0016_006.mp3\n",
      "Generate audio => ./ManintheIronMask/project_file/audio/2759-2_txt/0017_001.mp3\n",
      "Generate audio => ./ManintheIronMask/project_file/audio/2759-2_txt/0017_002.mp3\n",
      "Generate audio => ./ManintheIronMask/project_file/audio/2759-2_txt/0017_003.mp3\n",
      "Generate audio => ./ManintheIronMask/project_file/audio/2759-2_txt/0017_004.mp3\n",
      "Generate audio => ./ManintheIronMask/project_file/audio/2759-2_txt/0017_005.mp3\n",
      "Generate audio => ./ManintheIronMask/project_file/audio/2759-2_txt/0017_006.mp3\n",
      "Generate audio => ./ManintheIronMask/project_file/audio/2759-2_txt/0017_007.mp3\n",
      "Generate audio => ./ManintheIronMask/project_file/audio/2759-2_txt/0017_008.mp3\n",
      "Generate audio => ./ManintheIronMask/project_file/audio/2759-2_txt/0018_001.mp3\n",
      "Generate audio => ./ManintheIronMask/project_file/audio/2759-2_txt/0018_002.mp3\n",
      "Generate audio => ./ManintheIronMask/project_file/audio/2759-2_txt/0018_003.mp3\n",
      "Generate audio => ./ManintheIronMask/project_file/audio/2759-2_txt/0018_004.mp3\n",
      "Generate audio => ./ManintheIronMask/project_file/audio/2759-2_txt/0018_005.mp3\n",
      "Generate audio => ./ManintheIronMask/project_file/audio/2759-2_txt/0018_006.mp3\n",
      "Generate audio => ./ManintheIronMask/project_file/audio/2759-2_txt/0018_007.mp3\n",
      "Generate audio => ./ManintheIronMask/project_file/audio/2759-2_txt/0018_008.mp3\n",
      "Generate audio => ./ManintheIronMask/project_file/audio/2759-2_txt/0019_001.mp3\n",
      "Generate audio => ./ManintheIronMask/project_file/audio/2759-2_txt/0019_002.mp3\n",
      "Generate audio => ./ManintheIronMask/project_file/audio/2759-2_txt/0019_003.mp3\n",
      "Generate audio => ./ManintheIronMask/project_file/audio/2759-2_txt/0019_004.mp3\n",
      "Generate audio => ./ManintheIronMask/project_file/audio/2759-2_txt/0019_005.mp3\n",
      "Generate audio => ./ManintheIronMask/project_file/audio/2759-2_txt/0019_006.mp3\n",
      "Generate audio => ./ManintheIronMask/project_file/audio/2759-2_txt/0019_007.mp3\n",
      "Generate audio => ./ManintheIronMask/project_file/audio/2759-2_txt/0019_008.mp3\n",
      "Generate audio => ./ManintheIronMask/project_file/audio/2759-2_txt/0019_009.mp3\n",
      "Generate audio => ./ManintheIronMask/project_file/audio/2759-2_txt/0019_010.mp3\n",
      "Generate audio => ./ManintheIronMask/project_file/audio/2759-2_txt/0019_011.mp3\n",
      "Generate audio => ./ManintheIronMask/project_file/audio/2759-2_txt/0020_001.mp3\n",
      "Generate audio => ./ManintheIronMask/project_file/audio/2759-2_txt/0020_002.mp3\n",
      "Generate audio => ./ManintheIronMask/project_file/audio/2759-2_txt/0020_003.mp3\n",
      "Generate audio => ./ManintheIronMask/project_file/audio/2759-2_txt/0020_004.mp3\n",
      "Generate audio => ./ManintheIronMask/project_file/audio/2759-2_txt/0020_005.mp3\n",
      "Generate audio => ./ManintheIronMask/project_file/audio/2759-2_txt/0020_006.mp3\n",
      "Generate audio => ./ManintheIronMask/project_file/audio/2759-2_txt/0020_007.mp3\n",
      "Generate audio => ./ManintheIronMask/project_file/audio/2759-2_txt/0021_001.mp3\n",
      "Generate audio => ./ManintheIronMask/project_file/audio/2759-2_txt/0021_002.mp3\n",
      "Generate audio => ./ManintheIronMask/project_file/audio/2759-2_txt/0021_003.mp3\n",
      "Generate audio => ./ManintheIronMask/project_file/audio/2759-2_txt/0021_004.mp3\n",
      "Generate audio => ./ManintheIronMask/project_file/audio/2759-2_txt/0021_005.mp3\n",
      "Generate audio => ./ManintheIronMask/project_file/audio/2759-2_txt/0021_006.mp3\n",
      "Generate audio => ./ManintheIronMask/project_file/audio/2759-2_txt/0021_007.mp3\n",
      "Generate audio => ./ManintheIronMask/project_file/audio/2759-2_txt/0021_008.mp3\n",
      "Generate audio => ./ManintheIronMask/project_file/audio/2759-2_txt/0022_001.mp3\n",
      "Generate audio => ./ManintheIronMask/project_file/audio/2759-2_txt/0022_002.mp3\n",
      "Generate audio => ./ManintheIronMask/project_file/audio/2759-2_txt/0022_003.mp3\n",
      "Generate audio => ./ManintheIronMask/project_file/audio/2759-2_txt/0022_004.mp3\n",
      "Generate audio => ./ManintheIronMask/project_file/audio/2759-2_txt/0022_005.mp3\n",
      "Generate audio => ./ManintheIronMask/project_file/audio/2759-2_txt/0022_006.mp3\n",
      "Generate audio => ./ManintheIronMask/project_file/audio/2759-2_txt/0022_007.mp3\n",
      "Generate audio => ./ManintheIronMask/project_file/audio/2759-2_txt/0022_008.mp3\n",
      "Generate audio => ./ManintheIronMask/project_file/audio/2759-2_txt/0022_009.mp3\n",
      "Generate audio => ./ManintheIronMask/project_file/audio/2759-2_txt/0023_001.mp3\n",
      "Generate audio => ./ManintheIronMask/project_file/audio/2759-2_txt/0023_002.mp3\n",
      "Generate audio => ./ManintheIronMask/project_file/audio/2759-2_txt/0023_003.mp3\n",
      "Generate audio => ./ManintheIronMask/project_file/audio/2759-2_txt/0023_004.mp3\n"
     ]
    },
    {
     "name": "stdout",
     "output_type": "stream",
     "text": [
      "Generate audio => ./ManintheIronMask/project_file/audio/2759-2_txt/0023_005.mp3\n",
      "Generate audio => ./ManintheIronMask/project_file/audio/2759-2_txt/0023_006.mp3\n",
      "Generate audio => ./ManintheIronMask/project_file/audio/2759-2_txt/0023_007.mp3\n",
      "Generate audio => ./ManintheIronMask/project_file/audio/2759-2_txt/0024_001.mp3\n",
      "Generate audio => ./ManintheIronMask/project_file/audio/2759-2_txt/0024_002.mp3\n",
      "Generate audio => ./ManintheIronMask/project_file/audio/2759-2_txt/0024_003.mp3\n",
      "Generate audio => ./ManintheIronMask/project_file/audio/2759-2_txt/0024_004.mp3\n",
      "Generate audio => ./ManintheIronMask/project_file/audio/2759-2_txt/0024_005.mp3\n",
      "Generate audio => ./ManintheIronMask/project_file/audio/2759-2_txt/0024_006.mp3\n",
      "Generate audio => ./ManintheIronMask/project_file/audio/2759-2_txt/0024_007.mp3\n",
      "Generate audio => ./ManintheIronMask/project_file/audio/2759-2_txt/0024_008.mp3\n",
      "Generate audio => ./ManintheIronMask/project_file/audio/2759-2_txt/0024_009.mp3\n",
      "Generate audio => ./ManintheIronMask/project_file/audio/2759-2_txt/0024_010.mp3\n",
      "Generate audio => ./ManintheIronMask/project_file/audio/2759-2_txt/0025_001.mp3\n",
      "Generate audio => ./ManintheIronMask/project_file/audio/2759-2_txt/0025_002.mp3\n",
      "Generate audio => ./ManintheIronMask/project_file/audio/2759-2_txt/0025_003.mp3\n",
      "Generate audio => ./ManintheIronMask/project_file/audio/2759-2_txt/0025_004.mp3\n",
      "Generate audio => ./ManintheIronMask/project_file/audio/2759-2_txt/0025_005.mp3\n",
      "Generate audio => ./ManintheIronMask/project_file/audio/2759-2_txt/0025_006.mp3\n",
      "Generate audio => ./ManintheIronMask/project_file/audio/2759-2_txt/0025_007.mp3\n",
      "Generate audio => ./ManintheIronMask/project_file/audio/2759-2_txt/0025_008.mp3\n",
      "Generate audio => ./ManintheIronMask/project_file/audio/2759-2_txt/0026_001.mp3\n",
      "Generate audio => ./ManintheIronMask/project_file/audio/2759-2_txt/0026_002.mp3\n",
      "Generate audio => ./ManintheIronMask/project_file/audio/2759-2_txt/0026_003.mp3\n",
      "Generate audio => ./ManintheIronMask/project_file/audio/2759-2_txt/0026_004.mp3\n",
      "Generate audio => ./ManintheIronMask/project_file/audio/2759-2_txt/0026_005.mp3\n",
      "Generate audio => ./ManintheIronMask/project_file/audio/2759-2_txt/0026_006.mp3\n",
      "Generate audio => ./ManintheIronMask/project_file/audio/2759-2_txt/0026_007.mp3\n",
      "Generate audio => ./ManintheIronMask/project_file/audio/2759-2_txt/0027_001.mp3\n",
      "Generate audio => ./ManintheIronMask/project_file/audio/2759-2_txt/0027_002.mp3\n",
      "Generate audio => ./ManintheIronMask/project_file/audio/2759-2_txt/0027_003.mp3\n",
      "Generate audio => ./ManintheIronMask/project_file/audio/2759-2_txt/0027_004.mp3\n",
      "Generate audio => ./ManintheIronMask/project_file/audio/2759-2_txt/0027_005.mp3\n",
      "Generate audio => ./ManintheIronMask/project_file/audio/2759-2_txt/0027_006.mp3\n",
      "Generate audio => ./ManintheIronMask/project_file/audio/2759-2_txt/0028_001.mp3\n",
      "Generate audio => ./ManintheIronMask/project_file/audio/2759-2_txt/0028_002.mp3\n",
      "Generate audio => ./ManintheIronMask/project_file/audio/2759-2_txt/0028_003.mp3\n",
      "Generate audio => ./ManintheIronMask/project_file/audio/2759-2_txt/0028_004.mp3\n",
      "Generate audio => ./ManintheIronMask/project_file/audio/2759-2_txt/0028_005.mp3\n",
      "Generate audio => ./ManintheIronMask/project_file/audio/2759-2_txt/0028_006.mp3\n",
      "Generate audio => ./ManintheIronMask/project_file/audio/2759-2_txt/0028_007.mp3\n",
      "Generate audio => ./ManintheIronMask/project_file/audio/2759-2_txt/0029_001.mp3\n",
      "Generate audio => ./ManintheIronMask/project_file/audio/2759-2_txt/0029_002.mp3\n",
      "Generate audio => ./ManintheIronMask/project_file/audio/2759-2_txt/0029_003.mp3\n",
      "Generate audio => ./ManintheIronMask/project_file/audio/2759-2_txt/0029_004.mp3\n",
      "Generate audio => ./ManintheIronMask/project_file/audio/2759-2_txt/0029_005.mp3\n",
      "Generate audio => ./ManintheIronMask/project_file/audio/2759-2_txt/0029_006.mp3\n",
      "Generate audio => ./ManintheIronMask/project_file/audio/2759-2_txt/0030_001.mp3\n",
      "Generate audio => ./ManintheIronMask/project_file/audio/2759-2_txt/0030_002.mp3\n",
      "Generate audio => ./ManintheIronMask/project_file/audio/2759-2_txt/0030_003.mp3\n",
      "Generate audio => ./ManintheIronMask/project_file/audio/2759-2_txt/0030_004.mp3\n",
      "Generate audio => ./ManintheIronMask/project_file/audio/2759-2_txt/0030_005.mp3\n",
      "Generate audio => ./ManintheIronMask/project_file/audio/2759-2_txt/0030_006.mp3\n",
      "Generate audio => ./ManintheIronMask/project_file/audio/2759-2_txt/0030_007.mp3\n",
      "Generate audio => ./ManintheIronMask/project_file/audio/2759-2_txt/0031_001.mp3\n",
      "Generate audio => ./ManintheIronMask/project_file/audio/2759-2_txt/0031_002.mp3\n",
      "Generate audio => ./ManintheIronMask/project_file/audio/2759-2_txt/0031_003.mp3\n",
      "Generate audio => ./ManintheIronMask/project_file/audio/2759-2_txt/0031_004.mp3\n",
      "Generate audio => ./ManintheIronMask/project_file/audio/2759-2_txt/0031_005.mp3\n",
      "Generate audio => ./ManintheIronMask/project_file/audio/2759-2_txt/0031_006.mp3\n",
      "Generate audio => ./ManintheIronMask/project_file/audio/2759-2_txt/0031_007.mp3\n",
      "Generate audio => ./ManintheIronMask/project_file/audio/2759-2_txt/0032_001.mp3\n",
      "Generate audio => ./ManintheIronMask/project_file/audio/2759-2_txt/0032_002.mp3\n",
      "Generate audio => ./ManintheIronMask/project_file/audio/2759-2_txt/0032_003.mp3\n",
      "Generate audio => ./ManintheIronMask/project_file/audio/2759-2_txt/0032_004.mp3\n",
      "Generate audio => ./ManintheIronMask/project_file/audio/2759-2_txt/0032_005.mp3\n",
      "Generate audio => ./ManintheIronMask/project_file/audio/2759-2_txt/0032_006.mp3\n",
      "Generate audio => ./ManintheIronMask/project_file/audio/2759-2_txt/0032_007.mp3\n",
      "Generate audio => ./ManintheIronMask/project_file/audio/2759-2_txt/0032_008.mp3\n",
      "Generate audio => ./ManintheIronMask/project_file/audio/2759-2_txt/0032_009.mp3\n",
      "Generate audio => ./ManintheIronMask/project_file/audio/2759-2_txt/0032_010.mp3\n",
      "Generate audio => ./ManintheIronMask/project_file/audio/2759-2_txt/0032_011.mp3\n",
      "Generate audio => ./ManintheIronMask/project_file/audio/2759-2_txt/0032_012.mp3\n",
      "Generate audio => ./ManintheIronMask/project_file/audio/2759-2_txt/0032_013.mp3\n",
      "Generate audio => ./ManintheIronMask/project_file/audio/2759-2_txt/0032_014.mp3\n",
      "Generate audio => ./ManintheIronMask/project_file/audio/2759-2_txt/0032_015.mp3\n",
      "Generate audio => ./ManintheIronMask/project_file/audio/2759-2_txt/0032_016.mp3\n",
      "Generate audio => ./ManintheIronMask/project_file/audio/2759-2_txt/0032_017.mp3\n",
      "Generate audio => ./ManintheIronMask/project_file/audio/2759-2_txt/0032_018.mp3\n",
      "Generate audio => ./ManintheIronMask/project_file/audio/2759-2_txt/0032_019.mp3\n",
      "Generate audio => ./ManintheIronMask/project_file/audio/2759-2_txt/0032_020.mp3\n",
      "Generate audio => ./ManintheIronMask/project_file/audio/2759-2_txt/0032_021.mp3\n",
      "Generate audio => ./ManintheIronMask/project_file/audio/2759-2_txt/0032_022.mp3\n",
      "Generate audio => ./ManintheIronMask/project_file/audio/2759-2_txt/0032_023.mp3\n",
      "Generate audio => ./ManintheIronMask/project_file/audio/2759-2_txt/0032_024.mp3\n",
      "Generate audio => ./ManintheIronMask/project_file/audio/2759-2_txt/0032_025.mp3\n",
      "Generate audio => ./ManintheIronMask/project_file/audio/2759-2_txt/0032_026.mp3\n",
      "Generate audio => ./ManintheIronMask/project_file/audio/2759-2_txt/0032_027.mp3\n",
      "Generate audio => ./ManintheIronMask/project_file/audio/2759-2_txt/0032_028.mp3\n",
      "Generate audio => ./ManintheIronMask/project_file/audio/2759-2_txt/0032_029.mp3\n",
      "Generate audio => ./ManintheIronMask/project_file/audio/2759-2_txt/0032_030.mp3\n",
      "Synthesize: 194 files\n",
      "./ManintheIronMask/project_file/audio/2759-2_txt/\n"
     ]
    }
   ],
   "source": [
    "# Split into files by chapter and characters break\n",
    "voice = texttospeech.VoiceSelectionParams(\n",
    "    language_code=\"en-GB\",\n",
    "    name=\"en-GB-Neural2-D\",\n",
    ")\n",
    "\n",
    "audio_config = texttospeech.AudioConfig(\n",
    "    audio_encoding=texttospeech.AudioEncoding.MP3,\n",
    "    speaking_rate=1.0\n",
    ")\n",
    "print(test_tta.synthesize_txt_split(file_name, file_limit=200, voice=voice, audio_config=audio_config))\n"
   ]
  },
  {
   "cell_type": "code",
   "execution_count": 9,
   "id": "ab7994d6",
   "metadata": {},
   "outputs": [
    {
     "name": "stdout",
     "output_type": "stream",
     "text": [
      "Generate track list: ./ManintheIronMask/project_file/audio/2759-2_txt/track_list.txt [total: 304 files]\n"
     ]
    },
    {
     "name": "stderr",
     "output_type": "stream",
     "text": [
      "ffmpeg version 5.1.2 Copyright (c) 2000-2022 the FFmpeg developers\n",
      "  built with Apple clang version 14.0.0 (clang-1400.0.29.102)\n",
      "  configuration: --prefix=/usr/local/Cellar/ffmpeg/5.1.2 --enable-shared --enable-pthreads --enable-version3 --cc=clang --host-cflags= --host-ldflags= --enable-ffplay --enable-gnutls --enable-gpl --enable-libaom --enable-libbluray --enable-libdav1d --enable-libmp3lame --enable-libopus --enable-librav1e --enable-librist --enable-librubberband --enable-libsnappy --enable-libsrt --enable-libtesseract --enable-libtheora --enable-libvidstab --enable-libvmaf --enable-libvorbis --enable-libvpx --enable-libwebp --enable-libx264 --enable-libx265 --enable-libxml2 --enable-libxvid --enable-lzma --enable-libfontconfig --enable-libfreetype --enable-frei0r --enable-libass --enable-libopencore-amrnb --enable-libopencore-amrwb --enable-libopenjpeg --enable-libspeex --enable-libsoxr --enable-libzmq --enable-libzimg --disable-libjack --disable-indev=jack --enable-videotoolbox\n",
      "  libavutil      57. 28.100 / 57. 28.100\n",
      "  libavcodec     59. 37.100 / 59. 37.100\n",
      "  libavformat    59. 27.100 / 59. 27.100\n",
      "  libavdevice    59.  7.100 / 59.  7.100\n",
      "  libavfilter     8. 44.100 /  8. 44.100\n",
      "  libswscale      6.  7.100 /  6.  7.100\n",
      "  libswresample   4.  7.100 /  4.  7.100\n",
      "  libpostproc    56.  6.100 / 56.  6.100\n",
      "[mp3 @ 0x7f9f1220e600] Estimating duration from bitrate, this may be inaccurate\n",
      "Input #0, concat, from './ManintheIronMask/project_file/audio/2759-2_txt/track_list.txt':\n",
      "  Duration: N/A, start: 0.000000, bitrate: 32 kb/s\n",
      "  Stream #0:0: Audio: mp3, 24000 Hz, mono, fltp, 32 kb/s\n",
      "Output #0, mp3, to './ManintheIronMask/project_file/audio/2759-2_txt.mp3':\n",
      "  Metadata:\n",
      "    TSSE            : Lavf59.27.100\n",
      "  Stream #0:0: Audio: mp3, 24000 Hz, mono, fltp, 32 kb/s\n",
      "Stream mapping:\n",
      "  Stream #0:0 -> #0:0 (copy)\n",
      "Press [q] to stop, [?] for help\n",
      "[mp3 @ 0x7f9f11705000] Estimating duration from bitrate, this may be inaccurate\n",
      "[mp3 @ 0x7f9f1220eb80] Estimating duration from bitrate, this may be inaccurate\n",
      "    Last message repeated 1 times\n",
      "[mp3 @ 0x7f9f12404100] Estimating duration from bitrate, this may be inaccurate\n",
      "[mp3 @ 0x7f9f12004940] Estimating duration from bitrate, this may be inaccurate\n",
      "[mp3 @ 0x7f9f1220e5c0] Estimating duration from bitrate, this may be inaccurate\n",
      "[mp3 @ 0x7f9f12404080] Estimating duration from bitrate, this may be inaccurate\n",
      "[mp3 @ 0x7f9f1220e5c0] Estimating duration from bitrate, this may be inaccurate\n",
      "[mp3 @ 0x7f9f12004c00] Estimating duration from bitrate, this may be inaccurate\n",
      "[mp3 @ 0x7f9f1220e5c0] Estimating duration from bitrate, this may be inaccurate\n",
      "[mp3 @ 0x7f9f11705000] Estimating duration from bitrate, this may be inaccurate\n",
      "[mp3 @ 0x7f9f12404080] Estimating duration from bitrate, this may be inaccurate\n",
      "[mp3 @ 0x7f9f1220e5c0] Estimating duration from bitrate, this may be inaccurate\n",
      "[mp3 @ 0x7f9f11705000] Estimating duration from bitrate, this may be inaccurate\n",
      "[mp3 @ 0x7f9f1220e5c0] Estimating duration from bitrate, this may be inaccurate\n",
      "[mp3 @ 0x7f9f124040c0] Estimating duration from bitrate, this may be inaccurate\n",
      "[mp3 @ 0x7f9f11705000] Estimating duration from bitrate, this may be inaccurate\n",
      "[mp3 @ 0x7f9f12004780] Estimating duration from bitrate, this may be inaccurate\n",
      "[mp3 @ 0x7f9f11705000] Estimating duration from bitrate, this may be inaccurate\n",
      "    Last message repeated 2 times\n",
      "[mp3 @ 0x7f9f12004800] Estimating duration from bitrate, this may be inaccurate\n",
      "[mp3 @ 0x7f9f12004740] Estimating duration from bitrate, this may be inaccurate\n",
      "[mp3 @ 0x7f9f1220e5c0] Estimating duration from bitrate, this may be inaccurate\n",
      "[mp3 @ 0x7f9f120049c0] Estimating duration from bitrate, this may be inaccurate\n",
      "[mp3 @ 0x7f9f12004940] Estimating duration from bitrate, this may be inaccurate\n",
      "[mp3 @ 0x7f9f12004740] Estimating duration from bitrate, this may be inaccurate\n",
      "[mp3 @ 0x7f9f11705200] Estimating duration from bitrate, this may be inaccurate\n",
      "[mp3 @ 0x7f9f117051c0] Estimating duration from bitrate, this may be inaccurate\n",
      "[mp3 @ 0x7f9f11705180] Estimating duration from bitrate, this may be inaccurate\n",
      "[mp3 @ 0x7f9f1220e5c0] Estimating duration from bitrate, this may be inaccurate\n",
      "[mp3 @ 0x7f9f12104e40] Estimating duration from bitrate, this may be inaccurate\n",
      "[mp3 @ 0x7f9f11705000] Estimating duration from bitrate, this may be inaccurate\n",
      "[mp3 @ 0x7f9f12704080] Estimating duration from bitrate, this may be inaccurate\n",
      "[mp3 @ 0x7f9f12104b80] Estimating duration from bitrate, this may be inaccurate\n",
      "[mp3 @ 0x7f9f11705000] Estimating duration from bitrate, this may be inaccurate\n",
      "    Last message repeated 1 times\n",
      "[mp3 @ 0x7f9f12104b80] Estimating duration from bitrate, this may be inaccurate\n",
      "[mp3 @ 0x7f9f11705000] Estimating duration from bitrate, this may be inaccurate\n",
      "[mp3 @ 0x7f9f12704080] Estimating duration from bitrate, this may be inaccurate\n",
      "[mp3 @ 0x7f9f1220eb80] Estimating duration from bitrate, this may be inaccurate\n",
      "[mp3 @ 0x7f9f12505f00] Estimating duration from bitrate, this may be inaccurate\n",
      "    Last message repeated 1 times\n",
      "[mp3 @ 0x7f9f12506440] Estimating duration from bitrate, this may be inaccurate\n",
      "[mp3 @ 0x7f9f12704100] Estimating duration from bitrate, this may be inaccurate\n",
      "[mp3 @ 0x7f9f127040c0] Estimating duration from bitrate, this may be inaccurate\n",
      "[mp3 @ 0x7f9f12104cc0] Estimating duration from bitrate, this may be inaccurate\n",
      "[mp3 @ 0x7f9f1220e5c0] Estimating duration from bitrate, this may be inaccurate\n",
      "[mp3 @ 0x7f9f11705000] Estimating duration from bitrate, this may be inaccurate\n",
      "    Last message repeated 1 times\n",
      "[mp3 @ 0x7f9f12404080] Estimating duration from bitrate, this may be inaccurate\n",
      "    Last message repeated 1 times\n",
      "[mp3 @ 0x7f9f12004780] Estimating duration from bitrate, this may be inaccurate\n",
      "[mp3 @ 0x7f9f1220e5c0] Estimating duration from bitrate, this may be inaccurate\n",
      "[mp3 @ 0x7f9f12004780] Estimating duration from bitrate, this may be inaccurate\n",
      "[mp3 @ 0x7f9f11705000] Estimating duration from bitrate, this may be inaccurate\n",
      "    Last message repeated 1 times\n",
      "[mp3 @ 0x7f9f12404080] Estimating duration from bitrate, this may be inaccurate\n",
      "    Last message repeated 1 times\n",
      "[mp3 @ 0x7f9f11705000] Estimating duration from bitrate, this may be inaccurate\n",
      "    Last message repeated 1 times\n",
      "[mp3 @ 0x7f9f12404300] Estimating duration from bitrate, this may be inaccurate\n",
      "[mp3 @ 0x7f9f12404080] Estimating duration from bitrate, this may be inaccurate\n",
      "    Last message repeated 1 times\n",
      "[mp3 @ 0x7f9f1220e5c0] Estimating duration from bitrate, this may be inaccurate\n",
      "[mp3 @ 0x7f9f12004780] Estimating duration from bitrate, this may be inaccurate\n",
      "[mp3 @ 0x7f9f11705200] Estimating duration from bitrate, this may be inaccurate\n",
      "[mp3 @ 0x7f9f11705000] Estimating duration from bitrate, this may be inaccurate\n",
      "[mp3 @ 0x7f9f120047c0] Estimating duration from bitrate, this may be inaccurate\n",
      "[mp3 @ 0x7f9f1220eb80] Estimating duration from bitrate, this may be inaccurate\n",
      "[mp3 @ 0x7f9f12004780] Estimating duration from bitrate, this may be inaccurate\n",
      "[mp3 @ 0x7f9f1220e5c0] Estimating duration from bitrate, this may be inaccurate\n",
      "[mp3 @ 0x7f9f12004780] Estimating duration from bitrate, this may be inaccurate\n",
      "[mp3 @ 0x7f9f12604080] Estimating duration from bitrate, this may be inaccurate\n",
      "[mp3 @ 0x7f9f12404080] Estimating duration from bitrate, this may be inaccurate\n",
      "[mp3 @ 0x7f9f12004780] Estimating duration from bitrate, this may be inaccurate\n",
      "[mp3 @ 0x7f9f11705000] Estimating duration from bitrate, this may be inaccurate\n",
      "[mp3 @ 0x7f9f1220e5c0] Estimating duration from bitrate, this may be inaccurate\n",
      "[mp3 @ 0x7f9f12004a80] Estimating duration from bitrate, this may be inaccurate\n",
      "[mp3 @ 0x7f9f1220e5c0] Estimating duration from bitrate, this may be inaccurate\n",
      "    Last message repeated 1 times\n",
      "[mp3 @ 0x7f9f12004780] Estimating duration from bitrate, this may be inaccurate\n",
      "[mp3 @ 0x7f9f11705000] Estimating duration from bitrate, this may be inaccurate\n",
      "[mp3 @ 0x7f9f1220e5c0] Estimating duration from bitrate, this may be inaccurate\n",
      "    Last message repeated 1 times\n",
      "[mp3 @ 0x7f9f12604180] Estimating duration from bitrate, this may be inaccurate\n",
      "[mp3 @ 0x7f9f11705000] Estimating duration from bitrate, this may be inaccurate\n",
      "[mp3 @ 0x7f9f1220eb80] Estimating duration from bitrate, this may be inaccurate\n",
      "[mp3 @ 0x7f9f12404080] Estimating duration from bitrate, this may be inaccurate\n",
      "[mp3 @ 0x7f9f1220e5c0] Estimating duration from bitrate, this may be inaccurate\n",
      "[mp3 @ 0x7f9f120047c0] Estimating duration from bitrate, this may be inaccurate\n"
     ]
    },
    {
     "name": "stderr",
     "output_type": "stream",
     "text": [
      "[mp3 @ 0x7f9f11705000] Estimating duration from bitrate, this may be inaccurate\n",
      "[mp3 @ 0x7f9f12004780] Estimating duration from bitrate, this may be inaccurate\n",
      "[mp3 @ 0x7f9f12404080] Estimating duration from bitrate, this may be inaccurate\n",
      "[mp3 @ 0x7f9f11705000] Estimating duration from bitrate, this may be inaccurate\n",
      "[mp3 @ 0x7f9f12404240] Estimating duration from bitrate, this may be inaccurate\n",
      "[mp3 @ 0x7f9f120047c0] Estimating duration from bitrate, this may be inaccurate\n",
      "[mp3 @ 0x7f9f12505f00] Estimating duration from bitrate, this may be inaccurate\n",
      "[mp3 @ 0x7f9f11705000] Estimating duration from bitrate, this may be inaccurate\n",
      "[mp3 @ 0x7f9f1220e5c0] Estimating duration from bitrate, this may be inaccurate\n",
      "[mp3 @ 0x7f9f11705140] Estimating duration from bitrate, this may be inaccurate\n",
      "[mp3 @ 0x7f9f12104b80] Estimating duration from bitrate, this may be inaccurate\n",
      "[mp3 @ 0x7f9f124042c0] Estimating duration from bitrate, this may be inaccurate\n",
      "[mp3 @ 0x7f9f12004800] Estimating duration from bitrate, this may be inaccurate\n",
      "[mp3 @ 0x7f9f1220e5c0] Estimating duration from bitrate, this may be inaccurate\n",
      "    Last message repeated 1 times\n",
      "[mp3 @ 0x7f9f12004780] Estimating duration from bitrate, this may be inaccurate\n",
      "[mp3 @ 0x7f9f11705000] Estimating duration from bitrate, this may be inaccurate\n",
      "[mp3 @ 0x7f9f12004780] Estimating duration from bitrate, this may be inaccurate\n",
      "[mp3 @ 0x7f9f1220eb80] Estimating duration from bitrate, this may be inaccurate\n",
      "[mp3 @ 0x7f9f12004780] Estimating duration from bitrate, this may be inaccurate\n",
      "[mp3 @ 0x7f9f12404080] Estimating duration from bitrate, this may be inaccurate\n",
      "    Last message repeated 1 times\n",
      "[mp3 @ 0x7f9f1220e5c0] Estimating duration from bitrate, this may be inaccurate\n",
      "[mp3 @ 0x7f9f11705000] Estimating duration from bitrate, this may be inaccurate\n",
      "    Last message repeated 3 times\n",
      "[mp3 @ 0x7f9f1220e5c0] Estimating duration from bitrate, this may be inaccurate\n",
      "[mp3 @ 0x7f9f12604080] Estimating duration from bitrate, this may be inaccurate\n",
      "[mp3 @ 0x7f9f12404080] Estimating duration from bitrate, this may be inaccurate\n",
      "[mp3 @ 0x7f9f1220e5c0] Estimating duration from bitrate, this may be inaccurate\n",
      "[mp3 @ 0x7f9f11705000] Estimating duration from bitrate, this may be inaccurate\n",
      "[mp3 @ 0x7f9f12404080] Estimating duration from bitrate, this may be inaccurate\n",
      "    Last message repeated 2 times\n",
      "[mp3 @ 0x7f9f12004780] Estimating duration from bitrate, this may be inaccurate\n",
      "[mp3 @ 0x7f9f12404080] Estimating duration from bitrate, this may be inaccurate\n",
      "[mp3 @ 0x7f9f12004780] Estimating duration from bitrate, this may be inaccurate\n",
      "[mp3 @ 0x7f9f11705000] Estimating duration from bitrate, this may be inaccurate\n",
      "[mp3 @ 0x7f9f12404080] Estimating duration from bitrate, this may be inaccurate\n",
      "[mp3 @ 0x7f9f1220eb80] Estimating duration from bitrate, this may be inaccurate\n",
      "    Last message repeated 1 times\n",
      "[mp3 @ 0x7f9f11705000] Estimating duration from bitrate, this may be inaccurate\n",
      "[mp3 @ 0x7f9f124041c0] Estimating duration from bitrate, this may be inaccurate\n",
      "[mp3 @ 0x7f9f12505f00] Estimating duration from bitrate, this may be inaccurate\n",
      "[mp3 @ 0x7f9f124042c0] Estimating duration from bitrate, this may be inaccurate\n",
      "[mp3 @ 0x7f9f11705000] Estimating duration from bitrate, this may be inaccurate\n",
      "[mp3 @ 0x7f9f1220e5c0] Estimating duration from bitrate, this may be inaccurate\n",
      "[mp3 @ 0x7f9f12404080] Estimating duration from bitrate, this may be inaccurate\n",
      "[mp3 @ 0x7f9f11705000] Estimating duration from bitrate, this may be inaccurate\n",
      "    Last message repeated 1 times\n",
      "[mp3 @ 0x7f9f1220eb80] Estimating duration from bitrate, this may be inaccurate\n",
      "[mp3 @ 0x7f9f12704180] Estimating duration from bitrate, this may be inaccurate\n",
      "[mp3 @ 0x7f9f120047c0] Estimating duration from bitrate, this may be inaccurate\n",
      "[mp3 @ 0x7f9f12404080] Estimating duration from bitrate, this may be inaccurate\n",
      "[mp3 @ 0x7f9f11705000] Estimating duration from bitrate, this may be inaccurate\n",
      "[mp3 @ 0x7f9f124042c0] Estimating duration from bitrate, this may be inaccurate\n",
      "[mp3 @ 0x7f9f1220e5c0] Estimating duration from bitrate, this may be inaccurate\n",
      "[mp3 @ 0x7f9f12004780] Estimating duration from bitrate, this may be inaccurate\n",
      "[mp3 @ 0x7f9f12004740] Estimating duration from bitrate, this may be inaccurate\n",
      "    Last message repeated 1 times\n",
      "[mp3 @ 0x7f9f1220eb80] Estimating duration from bitrate, this may be inaccurate\n",
      "[mp3 @ 0x7f9f11705000] Estimating duration from bitrate, this may be inaccurate\n",
      "[mp3 @ 0x7f9f12104b80] Estimating duration from bitrate, this may be inaccurate\n",
      "[mp3 @ 0x7f9f124042c0] Estimating duration from bitrate, this may be inaccurate\n",
      "[mp3 @ 0x7f9f1220e5c0] Estimating duration from bitrate, this may be inaccurate\n",
      "    Last message repeated 1 times\n",
      "[mp3 @ 0x7f9f11705000] Estimating duration from bitrate, this may be inaccurate\n",
      "[mp3 @ 0x7f9f12004800] Estimating duration from bitrate, this may be inaccurate\n",
      "[mp3 @ 0x7f9f11705000] Estimating duration from bitrate, this may be inaccurate\n",
      "[mp3 @ 0x7f9f12404080] Estimating duration from bitrate, this may be inaccurate\n",
      "[mp3 @ 0x7f9f12004780] Estimating duration from bitrate, this may be inaccurate\n",
      "[mp3 @ 0x7f9f12004740] Estimating duration from bitrate, this may be inaccurate\n",
      "[mp3 @ 0x7f9f1220e5c0] Estimating duration from bitrate, this may be inaccurate\n",
      "[mp3 @ 0x7f9f11705080] Estimating duration from bitrate, this may be inaccurate\n",
      "[mp3 @ 0x7f9f11705040] Estimating duration from bitrate, this may be inaccurate\n",
      "[mp3 @ 0x7f9f1220e5c0] Estimating duration from bitrate, this may be inaccurate\n",
      "    Last message repeated 2 times\n",
      "[mp3 @ 0x7f9f11705000] Estimating duration from bitrate, this may be inaccurate\n",
      "[mp3 @ 0x7f9f12404080] Estimating duration from bitrate, this may be inaccurate\n",
      "[mp3 @ 0x7f9f12004780] Estimating duration from bitrate, this may be inaccurate\n",
      "[mp3 @ 0x7f9f11705000] Estimating duration from bitrate, this may be inaccurate\n",
      "[mp3 @ 0x7f9f12004900] Estimating duration from bitrate, this may be inaccurate\n",
      "[mp3 @ 0x7f9f12004740] Estimating duration from bitrate, this may be inaccurate\n",
      "[mp3 @ 0x7f9f1220e5c0] Estimating duration from bitrate, this may be inaccurate\n",
      "    Last message repeated 1 times\n",
      "[mp3 @ 0x7f9f120047c0] Estimating duration from bitrate, this may be inaccurate\n",
      "[mp3 @ 0x7f9f12004740] Estimating duration from bitrate, this may be inaccurate\n",
      "[mp3 @ 0x7f9f12604080] Estimating duration from bitrate, this may be inaccurate\n",
      "[mp3 @ 0x7f9f12506000] Estimating duration from bitrate, this may be inaccurate\n",
      "[mp3 @ 0x7f9f12004780] Estimating duration from bitrate, this may be inaccurate\n",
      "[mp3 @ 0x7f9f11705000] Estimating duration from bitrate, this may be inaccurate\n",
      "    Last message repeated 1 times\n",
      "[mp3 @ 0x7f9f1220e5c0] Estimating duration from bitrate, this may be inaccurate\n",
      "    Last message repeated 2 times\n",
      "[mp3 @ 0x7f9f12104b80] Estimating duration from bitrate, this may be inaccurate\n",
      "[mp3 @ 0x7f9f1220e5c0] Estimating duration from bitrate, this may be inaccurate\n",
      "[mp3 @ 0x7f9f117050c0] Estimating duration from bitrate, this may be inaccurate\n",
      "[mp3 @ 0x7f9f12404080] Estimating duration from bitrate, this may be inaccurate\n",
      "[mp3 @ 0x7f9f120047c0] Estimating duration from bitrate, this may be inaccurate\n",
      "[mp3 @ 0x7f9f1220e5c0] Estimating duration from bitrate, this may be inaccurate\n",
      "    Last message repeated 1 times\n",
      "[mp3 @ 0x7f9f11705000] Estimating duration from bitrate, this may be inaccurate\n",
      "[mp3 @ 0x7f9f12004980] Estimating duration from bitrate, this may be inaccurate\n",
      "[mp3 @ 0x7f9f12004900] Estimating duration from bitrate, this may be inaccurate\n",
      "[mp3 @ 0x7f9f1220e5c0] Estimating duration from bitrate, this may be inaccurate\n",
      "[mp3 @ 0x7f9f12505f00] Estimating duration from bitrate, this may be inaccurate\n",
      "[mp3 @ 0x7f9f12004780] Estimating duration from bitrate, this may be inaccurate\n",
      "[mp3 @ 0x7f9f12404180] Estimating duration from bitrate, this may be inaccurate\n",
      "[mp3 @ 0x7f9f12404080] Estimating duration from bitrate, this may be inaccurate\n",
      "[mp3 @ 0x7f9f1220e5c0] Estimating duration from bitrate, this may be inaccurate\n",
      "[mp3 @ 0x7f9f12404080] Estimating duration from bitrate, this may be inaccurate\n",
      "[mp3 @ 0x7f9f1220e5c0] Estimating duration from bitrate, this may be inaccurate\n"
     ]
    },
    {
     "name": "stderr",
     "output_type": "stream",
     "text": [
      "    Last message repeated 2 times\n",
      "[mp3 @ 0x7f9f12004780] Estimating duration from bitrate, this may be inaccurate\n",
      "[mp3 @ 0x7f9f11705000] Estimating duration from bitrate, this may be inaccurate\n",
      "    Last message repeated 1 times\n",
      "[mp3 @ 0x7f9f1220e5c0] Estimating duration from bitrate, this may be inaccurate\n",
      "[mp3 @ 0x7f9f12404080] Estimating duration from bitrate, this may be inaccurate\n",
      "[mp3 @ 0x7f9f1220e5c0] Estimating duration from bitrate, this may be inaccurate\n",
      "[mp3 @ 0x7f9f12004780] Estimating duration from bitrate, this may be inaccurate\n",
      "[mp3 @ 0x7f9f1220e5c0] Estimating duration from bitrate, this may be inaccurate\n",
      "[mp3 @ 0x7f9f11705000] Estimating duration from bitrate, this may be inaccurate\n",
      "[mp3 @ 0x7f9f120047c0] Estimating duration from bitrate, this may be inaccurate\n",
      "[mp3 @ 0x7f9f11705000] Estimating duration from bitrate, this may be inaccurate\n",
      "[mp3 @ 0x7f9f12505f00] Estimating duration from bitrate, this may be inaccurate\n",
      "[mp3 @ 0x7f9f12004a00] Estimating duration from bitrate, this may be inaccurate\n",
      "[mp3 @ 0x7f9f1220e5c0] Estimating duration from bitrate, this may be inaccurate\n",
      "    Last message repeated 1 times\n",
      "[mp3 @ 0x7f9f12404080] Estimating duration from bitrate, this may be inaccurate\n",
      "[mp3 @ 0x7f9f12505f00] Estimating duration from bitrate, this may be inaccurate\n",
      "[mp3 @ 0x7f9f12004780] Estimating duration from bitrate, this may be inaccurate\n",
      "[mp3 @ 0x7f9f11705000] Estimating duration from bitrate, this may be inaccurate\n",
      "    Last message repeated 1 times\n",
      "[mp3 @ 0x7f9f12004780] Estimating duration from bitrate, this may be inaccurate\n",
      "[mp3 @ 0x7f9f12004740] Estimating duration from bitrate, this may be inaccurate\n",
      "[mp3 @ 0x7f9f12404200] Estimating duration from bitrate, this may be inaccurate\n",
      "[mp3 @ 0x7f9f124040c0] Estimating duration from bitrate, this may be inaccurate\n",
      "[mp3 @ 0x7f9f11705000] Estimating duration from bitrate, this may be inaccurate\n",
      "    Last message repeated 1 times\n",
      "[mp3 @ 0x7f9f1220e5c0] Estimating duration from bitrate, this may be inaccurate\n",
      "[mp3 @ 0x7f9f12704080] Estimating duration from bitrate, this may be inaccurate\n",
      "[mp3 @ 0x7f9f11705000] Estimating duration from bitrate, this may be inaccurate\n",
      "[mp3 @ 0x7f9f124042c0] Estimating duration from bitrate, this may be inaccurate\n",
      "[mp3 @ 0x7f9f1220e5c0] Estimating duration from bitrate, this may be inaccurate\n",
      "[mp3 @ 0x7f9f124042c0] Estimating duration from bitrate, this may be inaccurate\n",
      "[mp3 @ 0x7f9f12404280] Estimating duration from bitrate, this may be inaccurate\n",
      "[mp3 @ 0x7f9f12004780] Estimating duration from bitrate, this may be inaccurate\n",
      "[mp3 @ 0x7f9f12004740] Estimating duration from bitrate, this may be inaccurate\n",
      "[mp3 @ 0x7f9f1220e5c0] Estimating duration from bitrate, this may be inaccurate\n",
      "[mp3 @ 0x7f9f11705000] Estimating duration from bitrate, this may be inaccurate\n",
      "[mp3 @ 0x7f9f120047c0] Estimating duration from bitrate, this may be inaccurate\n",
      "[mp3 @ 0x7f9f124041c0] Estimating duration from bitrate, this may be inaccurate\n",
      "[mp3 @ 0x7f9f11705000] Estimating duration from bitrate, this may be inaccurate\n",
      "[mp3 @ 0x7f9f12404080] Estimating duration from bitrate, this may be inaccurate\n",
      "[mp3 @ 0x7f9f120047c0] Estimating duration from bitrate, this may be inaccurate\n",
      "[mp3 @ 0x7f9f12404080] Estimating duration from bitrate, this may be inaccurate\n",
      "[mp3 @ 0x7f9f11705000] Estimating duration from bitrate, this may be inaccurate\n",
      "    Last message repeated 2 times\n",
      "[mp3 @ 0x7f9f12404240] Estimating duration from bitrate, this may be inaccurate\n",
      "[mp3 @ 0x7f9f1220eb80] Estimating duration from bitrate, this may be inaccurate\n",
      "[mp3 @ 0x7f9f11705000] Estimating duration from bitrate, this may be inaccurate\n",
      "    Last message repeated 1 times\n",
      "[mp3 @ 0x7f9f12404080] Estimating duration from bitrate, this may be inaccurate\n",
      "[mp3 @ 0x7f9f11705000] Estimating duration from bitrate, this may be inaccurate\n",
      "[mp3 @ 0x7f9f12404080] Estimating duration from bitrate, this may be inaccurate\n",
      "[mp3 @ 0x7f9f1220e5c0] Estimating duration from bitrate, this may be inaccurate\n",
      "[mp3 @ 0x7f9f11705000] Estimating duration from bitrate, this may be inaccurate\n",
      "    Last message repeated 1 times\n",
      "[mp3 @ 0x7f9f11705500] Estimating duration from bitrate, this may be inaccurate\n",
      "[mp3 @ 0x7f9f1220e5c0] Estimating duration from bitrate, this may be inaccurate\n",
      "[mp3 @ 0x7f9f11705000] Estimating duration from bitrate, this may be inaccurate\n",
      "[mp3 @ 0x7f9f1220e5c0] Estimating duration from bitrate, this may be inaccurate\n",
      "[mp3 @ 0x7f9f11705000] Estimating duration from bitrate, this may be inaccurate\n",
      "[mp3 @ 0x7f9f12404080] Estimating duration from bitrate, this may be inaccurate\n",
      "[mp3 @ 0x7f9f12604180] Estimating duration from bitrate, this may be inaccurate\n",
      "[mp3 @ 0x7f9f12004780] Estimating duration from bitrate, this may be inaccurate\n",
      "[mp3 @ 0x7f9f12404080] Estimating duration from bitrate, this may be inaccurate\n",
      "[mp3 @ 0x7f9f11705000] Estimating duration from bitrate, this may be inaccurate\n",
      "[mp3 @ 0x7f9f12404080] Estimating duration from bitrate, this may be inaccurate\n",
      "[mp3 @ 0x7f9f1220e5c0] Estimating duration from bitrate, this may be inaccurate\n",
      "[mp3 @ 0x7f9f124042c0] Estimating duration from bitrate, this may be inaccurate\n",
      "[mp3 @ 0x7f9f1220e5c0] Estimating duration from bitrate, this may be inaccurate\n",
      "    Last message repeated 2 times\n",
      "[mp3 @ 0x7f9f120047c0] Estimating duration from bitrate, this may be inaccurate\n",
      "[mp3 @ 0x7f9f1220e5c0] Estimating duration from bitrate, this may be inaccurate\n",
      "[mp3 @ 0x7f9f12404080] Estimating duration from bitrate, this may be inaccurate\n",
      "    Last message repeated 2 times\n",
      "[mp3 @ 0x7f9f1220e5c0] Estimating duration from bitrate, this may be inaccurate\n",
      "[mp3 @ 0x7f9f12404240] Estimating duration from bitrate, this may be inaccurate\n",
      "[mp3 @ 0x7f9f12704080] Estimating duration from bitrate, this may be inaccurate\n",
      "[mp3 @ 0x7f9f12404240] Estimating duration from bitrate, this may be inaccurate\n",
      "[mp3 @ 0x7f9f11705000] Estimating duration from bitrate, this may be inaccurate\n",
      "[mp3 @ 0x7f9f12004780] Estimating duration from bitrate, this may be inaccurate\n",
      "[mp3 @ 0x7f9f11705000] Estimating duration from bitrate, this may be inaccurate\n",
      "[mp3 @ 0x7f9f11705440] Estimating duration from bitrate, this may be inaccurate\n",
      "[mp3 @ 0x7f9f12404240] Estimating duration from bitrate, this may be inaccurate\n",
      "[mp3 @ 0x7f9f1220eb80] Estimating duration from bitrate, this may be inaccurate\n",
      "[mp3 @ 0x7f9f12004780] Estimating duration from bitrate, this may be inaccurate\n"
     ]
    },
    {
     "name": "stdout",
     "output_type": "stream",
     "text": [
      "Generate full audio: ./ManintheIronMask/project_file/audio/2759-2_txt.mp3\n",
      "./ManintheIronMask/project_file/audio/2759-2_txt.mp3\n"
     ]
    },
    {
     "name": "stderr",
     "output_type": "stream",
     "text": [
      "[mp3 @ 0x7f9f11705000] Estimating duration from bitrate, this may be inaccurate\n",
      "[mp3 @ 0x7f9f1220e5c0] Estimating duration from bitrate, this may be inaccurate\n",
      "[mp3 @ 0x7f9f12004780] Estimating duration from bitrate, this may be inaccurate\n",
      "[mp3 @ 0x7f9f11705000] Estimating duration from bitrate, this may be inaccurate\n",
      "[mp3 @ 0x7f9f12404080] Estimating duration from bitrate, this may be inaccurate\n",
      "[mp3 @ 0x7f9f11705000] Estimating duration from bitrate, this may be inaccurate\n",
      "[mp3 @ 0x7f9f12004800] Estimating duration from bitrate, this may be inaccurate\n",
      "size=  131328kB time=09:20:35.83 bitrate=  32.0kbits/s speed=4.8e+03x    \r",
      "size=  131510kB time=09:21:06.55 bitrate=  32.0kbits/s speed=4.8e+03x    \n",
      "video:0kB audio:131510kB subtitle:0kB other streams:0kB global headers:0kB muxing overhead: 0.000176%\n"
     ]
    }
   ],
   "source": [
    "# Merge audio files => full length\n",
    "print(test_tta.merge_audio_files(file_name))"
   ]
  },
  {
   "cell_type": "code",
   "execution_count": 10,
   "id": "b382e4e1",
   "metadata": {},
   "outputs": [
    {
     "name": "stderr",
     "output_type": "stream",
     "text": [
      "ffmpeg version 5.1.2 Copyright (c) 2000-2022 the FFmpeg developers\n",
      "  built with Apple clang version 14.0.0 (clang-1400.0.29.102)\n",
      "  configuration: --prefix=/usr/local/Cellar/ffmpeg/5.1.2 --enable-shared --enable-pthreads --enable-version3 --cc=clang --host-cflags= --host-ldflags= --enable-ffplay --enable-gnutls --enable-gpl --enable-libaom --enable-libbluray --enable-libdav1d --enable-libmp3lame --enable-libopus --enable-librav1e --enable-librist --enable-librubberband --enable-libsnappy --enable-libsrt --enable-libtesseract --enable-libtheora --enable-libvidstab --enable-libvmaf --enable-libvorbis --enable-libvpx --enable-libwebp --enable-libx264 --enable-libx265 --enable-libxml2 --enable-libxvid --enable-lzma --enable-libfontconfig --enable-libfreetype --enable-frei0r --enable-libass --enable-libopencore-amrnb --enable-libopencore-amrwb --enable-libopenjpeg --enable-libspeex --enable-libsoxr --enable-libzmq --enable-libzimg --disable-libjack --disable-indev=jack --enable-videotoolbox\n",
      "  libavutil      57. 28.100 / 57. 28.100\n",
      "  libavcodec     59. 37.100 / 59. 37.100\n",
      "  libavformat    59. 27.100 / 59. 27.100\n",
      "  libavdevice    59.  7.100 / 59.  7.100\n",
      "  libavfilter     8. 44.100 /  8. 44.100\n",
      "  libswscale      6.  7.100 /  6.  7.100\n",
      "  libswresample   4.  7.100 /  4.  7.100\n",
      "  libpostproc    56.  6.100 / 56.  6.100\n",
      "Input #0, png_pipe, from './ManintheIronMask/project_file/image/2759-2_txt.png':\n",
      "  Duration: N/A, bitrate: N/A\n",
      "  Stream #0:0: Video: png, rgba(pc), 1280x720 [SAR 2835:2835 DAR 16:9], 25 fps, 25 tbr, 25 tbn\n",
      "Input #1, mp3, from './ManintheIronMask/project_file/audio/2759-2_txt.mp3':\n",
      "  Metadata:\n",
      "    encoder         : Lavf59.27.100\n",
      "  Duration: 09:21:06.55, start: 0.022042, bitrate: 32 kb/s\n",
      "  Stream #1:0: Audio: mp3, 24000 Hz, mono, fltp, 32 kb/s\n",
      "Stream mapping:\n",
      "  Stream #0:0 -> #0:0 (png (native) -> h264 (libx264))\n",
      "  Stream #1:0 -> #0:1 (mp3 (mp3float) -> aac (native))\n",
      "Press [q] to stop, [?] for help\n",
      "[libx264 @ 0x7fece9006940] using SAR=1/1\n",
      "[libx264 @ 0x7fece9006940] using cpu capabilities: MMX2 SSE2Fast SSSE3 SSE4.2 AVX FMA3 BMI2 AVX2\n",
      "[libx264 @ 0x7fece9006940] profile High, level 3.1, 4:2:0, 8-bit\n",
      "[libx264 @ 0x7fece9006940] 264 - core 164 r3095 baee400 - H.264/MPEG-4 AVC codec - Copyleft 2003-2022 - http://www.videolan.org/x264.html - options: cabac=1 ref=3 deblock=1:-3:-3 analyse=0x3:0x113 me=hex subme=7 psy=1 psy_rd=2.00:0.70 mixed_ref=1 me_range=16 chroma_me=1 trellis=1 8x8dct=1 cqm=0 deadzone=21,11 fast_pskip=1 chroma_qp_offset=-4 threads=12 lookahead_threads=2 sliced_threads=0 nr=0 decimate=1 interlaced=0 bluray_compat=0 constrained_intra=0 bframes=3 b_pyramid=2 b_adapt=1 b_bias=0 direct=1 weightb=1 open_gop=0 weightp=2 keyint=250 keyint_min=25 scenecut=40 intra_refresh=0 rc_lookahead=40 rc=crf mbtree=1 crf=23.0 qcomp=0.60 qpmin=0 qpmax=69 qpstep=4 ip_ratio=1.40 aq=1:1.20\n",
      "[aac @ 0x7fece900bd40] Too many bits 8192.000000 > 6144 per frame requested, clamping to max\n",
      "Output #0, mp4, to './ManintheIronMask/project_file/video/2759-2_txt.mp4':\n",
      "  Metadata:\n",
      "    encoder         : Lavf59.27.100\n",
      "  Stream #0:0: Video: h264 (avc1 / 0x31637661), yuv420p(tv, progressive), 1280x720 [SAR 1:1 DAR 16:9], q=2-31, 25 fps, 12800 tbn\n",
      "    Metadata:\n",
      "      encoder         : Lavc59.37.100 libx264\n",
      "    Side data:\n",
      "      cpb: bitrate max/min/avg: 0/0/0 buffer size: 0 vbv_delay: N/A\n",
      "  Stream #0:1: Audio: aac (LC) (mp4a / 0x6134706D), 24000 Hz, mono, fltp, 144 kb/s\n",
      "    Metadata:\n",
      "      encoder         : Lavc59.37.100 aac\n",
      "frame=841674 fps= 94 q=28.0 size=  940288kB time=09:21:04.64 bitrate= 228.8kbits/s speed=3.75x    11 fps= 91 q=28.0 size=  590848kB time=05:52:58.11 bitrate= 228.5kbits/s speed=3.63x    ze=  591616kB time=05:53:20.00 bitrate= 228.6kbits/s speed=3.62x     q=28.0 size=  619008kB time=06:09:38.38 bitrate= 228.6kbits/s speed=3.59x     bitrate= 228.6kbits/s speed=3.59x    15 fps= 89 q=28.0 size=  652032kB time=06:29:22.26 bitrate= 228.6kbits/s speed=3.56x     q=28.0 size=  652544kB time=06:29:38.90 bitrate= 228.7kbits/s speed=3.56x    \r"
     ]
    },
    {
     "name": "stdout",
     "output_type": "stream",
     "text": [
      "Generate full video: ./ManintheIronMask/project_file/video/2759-2_txt.mp4\n",
      "./ManintheIronMask/project_file/video/2759-2_txt.mp4\n"
     ]
    },
    {
     "name": "stderr",
     "output_type": "stream",
     "text": [
      "frame=841720 fps= 94 q=-1.0 Lsize=  960725kB time=09:21:08.68 bitrate= 233.8kbits/s speed=3.75x    \n",
      "video:527855kB audio:412538kB subtitle:0kB other streams:0kB global headers:0kB muxing overhead: 2.162063%\n",
      "[libx264 @ 0x7fece9006940] frame I:3367  Avg QP:13.06  size:112691\n",
      "[libx264 @ 0x7fece9006940] frame P:212113 Avg QP:13.91  size:   443\n",
      "[libx264 @ 0x7fece9006940] frame B:626240 Avg QP:22.89  size:   107\n",
      "[libx264 @ 0x7fece9006940] consecutive B-frames:  0.8%  0.0%  0.0% 99.2%\n",
      "[libx264 @ 0x7fece9006940] mb I  I16..4:  3.9% 74.3% 21.9%\n",
      "[libx264 @ 0x7fece9006940] mb P  I16..4:  0.0%  0.0%  0.0%  P16..4:  1.6%  0.2%  0.2%  0.0%  0.0%    skip:98.0%\n",
      "[libx264 @ 0x7fece9006940] mb B  I16..4:  0.0%  0.0%  0.0%  B16..8:  2.3%  0.0%  0.0%  direct: 0.0%  skip:97.7%  L0:60.6% L1:39.4% BI: 0.1%\n",
      "[libx264 @ 0x7fece9006940] 8x8 transform intra:74.3% inter:91.0%\n",
      "[libx264 @ 0x7fece9006940] coded y,uvDC,uvAC intra: 97.3% 98.8% 97.5% inter: 0.2% 0.1% 0.0%\n",
      "[libx264 @ 0x7fece9006940] i16 v,h,dc,p: 17%  3%  2% 78%\n",
      "[libx264 @ 0x7fece9006940] i8 v,h,dc,ddl,ddr,vr,hd,vl,hu: 37% 14%  8%  4%  6%  9%  6% 10%  7%\n",
      "[libx264 @ 0x7fece9006940] i4 v,h,dc,ddl,ddr,vr,hd,vl,hu: 29% 15%  6%  6%  9% 10%  8% 10%  8%\n",
      "[libx264 @ 0x7fece9006940] i8c dc,h,v,p: 30% 18% 38% 14%\n",
      "[libx264 @ 0x7fece9006940] Weighted P-Frames: Y:0.0% UV:0.0%\n",
      "[libx264 @ 0x7fece9006940] ref P L0: 68.1%  0.2% 30.3%  1.4%\n",
      "[libx264 @ 0x7fece9006940] ref B L0: 48.3% 51.4%  0.2%\n",
      "[libx264 @ 0x7fece9006940] ref B L1: 96.9%  3.1%\n",
      "[libx264 @ 0x7fece9006940] kb/s:128.43\n",
      "[aac @ 0x7fece900bd40] Qavg: 65515.707\n"
     ]
    }
   ],
   "source": [
    "# Audio + Image => Video\n",
    "print(test_tta.merge_video_file(file_name))"
   ]
  },
  {
   "cell_type": "code",
   "execution_count": 8,
   "id": "004bc195",
   "metadata": {},
   "outputs": [
    {
     "name": "stdout",
     "output_type": "stream",
     "text": [
      "0:00:00 Chapter 1\n",
      "0:14:13 Chaptor 2\n",
      "0:31:48 Chaptor 3\n",
      "0:52:59 Chaptor 4\n",
      "1:20:35 Chaptor 5\n",
      "1:40:33 Chaptor 6\n",
      "1:57:14 Chaptor 7\n",
      "2:13:55 Chaptor 8\n",
      "2:30:44 Chaptor 9\n",
      "2:43:52 Chaptor 10\n",
      "3:02:50 Chaptor 11\n",
      "3:21:26 Chaptor 12\n",
      "3:43:48 Chaptor 13\n",
      "4:05:48 Chaptor 14\n",
      "4:30:46 Chaptor 15\n",
      "4:36:43 Chaptor 16\n",
      "4:46:19 Chaptor 17\n",
      "4:59:42 Chaptor 18\n",
      "5:14:08 Chaptor 19\n",
      "5:32:40 Chaptor 20\n",
      "5:44:47 Chaptor 21\n",
      "6:00:01 Chaptor 22\n",
      "6:15:49 Chaptor 23\n",
      "6:29:15 Chaptor 24\n",
      "6:48:00 Chaptor 25\n",
      "7:03:21 Chaptor 26\n",
      "7:16:52 Chaptor 27\n",
      "7:29:10 Chaptor 28\n",
      "7:43:40 Chaptor 29\n",
      "7:54:53 Chaptor 30\n",
      "8:09:44 Chaptor 31\n",
      "8:24:11 Chaptor 32\n"
     ]
    }
   ],
   "source": [
    "print(test_tta.gen_youtube_chapter_marker(file_name))"
   ]
  },
  {
   "cell_type": "code",
   "execution_count": null,
   "id": "a692882a",
   "metadata": {},
   "outputs": [],
   "source": []
  }
 ],
 "metadata": {
  "kernelspec": {
   "display_name": "Python tts env",
   "language": "python",
   "name": "tts_env"
  },
  "language_info": {
   "codemirror_mode": {
    "name": "ipython",
    "version": 3
   },
   "file_extension": ".py",
   "mimetype": "text/x-python",
   "name": "python",
   "nbconvert_exporter": "python",
   "pygments_lexer": "ipython3",
   "version": "3.9.12"
  }
 },
 "nbformat": 4,
 "nbformat_minor": 5
}
